PathFileType	4	(X/Y/Z)	 s05c0403.trc
DataRate	CameraRate	NumFrames	NumMarkers	Units	OrigDataRate	OrigDataStartFrame	OrigNumFrames
200	200	4	49	mm	200	501	2000
Frame#	Time	racr			lacr			c7			jug			rlel			rdr			llel			ldr			s2			lic			ric			lasi			rasi			rpsi			lpsi			rgt			lgt			rth1			rth2			rth3			rth4			rlfc			rsh1			rsh2			rsh3			rsh4			rlmal			rmmal			rcal			rtoe			rmt5			lth1			lth2			lth4			lth3			llfc			lmfc			lsh1			lsh2			lsh3			lsh4			llmal			lmmal			lcal			ltoe			lmt5			SBIKE			LBIKE			RBIKE			
		X1	Y1	Z1	X2	Y2	Z2	X3	Y3	Z3	X4	Y4	Z4	X5	Y5	Z5	X6	Y6	Z6	X7	Y7	Z7	X8	Y8	Z8	X9	Y9	Z9	X10	Y10	Z10	X11	Y11	Z11	X12	Y12	Z12	X13	Y13	Z13	X14	Y14	Z14	X15	Y15	Z15	X16	Y16	Z16	X17	Y17	Z17	X18	Y18	Z18	X19	Y19	Z19	X20	Y20	Z20	X21	Y21	Z21	X22	Y22	Z22	X23	Y23	Z23	X24	Y24	Z24	X25	Y25	Z25	X26	Y26	Z26	X27	Y27	Z27	X28	Y28	Z28	X29	Y29	Z29	X30	Y30	Z30	X31	Y31	Z31	X32	Y32	Z32	X33	Y33	Z33	X34	Y34	Z34	X35	Y35	Z35	X36	Y36	Z36	X37	Y37	Z37	X38	Y38	Z38	X39	Y39	Z39	X40	Y40	Z40	X41	Y41	Z41	X42	Y42	Z42	X43	Y43	Z43	X44	Y44	Z44	X45	Y45	Z45	X46	Y46	Z46	X47	Y47	Z47	X48	Y48	Z48	X49	Y49	Z49	
501	2.5050	733.324050	1292.767826	-97.871639	755.854649	1303.061506	-408.801632	729.410388	1400.792168	-262.323801	683.942507	1235.365133	-260.048087	533.984309	1124.943260	59.435585	682.138998	967.631769	-24.648286	555.438726	1153.302648	-603.904225	686.817136	974.199781	-486.690708	157.546249	1254.373112	-296.776876	310.457502	1263.524230	-418.163766	291.288967	1235.657077	-136.426694	346.141065	1200.739370	-385.361135	320.741092	1171.040256	-169.025597	195.331806	1289.868202	-242.679028	203.852317	1304.076056	-328.294698	196.918385	1111.106032	-141.356119	256.435465	1175.259734	-464.718304	217.229477	999.502822	-116.272606	244.736922	915.195839	-106.918653	227.948957	828.888337	-113.982971	281.544125	917.472325	-107.518533	257.486751	678.019805	-126.266286	183.101818	598.155632	-101.656620	163.811842	512.249333	-113.507917	107.933231	447.510100	-119.304248	193.564051	500.545943	-134.928430	53.776994	322.273649	-127.732734	81.681319	339.267141	-206.286943	-18.956545	321.567796	-178.731727	222.661656	151.916980	-142.915972	118.529667	186.359047	-89.453547	358.565428	1075.825142	-461.365538	438.167323	1050.692020	-445.413426	455.210751	1078.789287	-426.396164	496.530206	982.169524	-436.111538	593.072908	877.363605	-381.898719	560.532731	870.282792	-273.340665	493.422211	811.976287	-414.414641	440.624569	741.875360	-412.588087	359.003211	707.683494	-421.920781	458.926396	716.886803	-390.316184	265.497820	617.499018	-429.986206	296.731260	628.183522	-350.651789	186.950226	616.643403	-395.739566	420.990273	438.745911	-384.365558	322.130035	477.298785	-454.183693	-164.108358	903.388454	-266.243213	-43.656283	85.416143	-474.519036	-51.824939	80.540466	-77.124391	
502	2.5100	734.125258	1290.759059	-100.743462	756.141598	1300.880134	-411.414865	730.969893	1399.295952	-264.990938	683.929016	1234.211198	-262.361192	534.268850	1125.712508	58.228661	682.035524	967.589757	-24.486473	554.781794	1151.787408	-606.121249	686.749843	974.220577	-487.052957	158.143860	1258.676408	-296.274748	310.756918	1266.238703	-418.440733	292.038433	1238.734708	-136.680771	346.316241	1203.355735	-385.972356	321.039545	1173.832145	-169.153195	195.261587	1294.245444	-242.673312	204.797940	1307.704668	-328.149976	197.025158	1114.355652	-141.425816	255.752445	1178.306845	-464.654634	218.285078	1002.300981	-116.467699	246.728786	918.261620	-107.321260	230.750958	831.763534	-114.198808	283.442351	920.932633	-108.172440	260.768525	680.966055	-126.495242	185.244447	602.346748	-101.776805	164.367453	516.722833	-113.819073	107.328842	453.011107	-119.451718	193.784260	504.511249	-135.481174	50.495218	328.758365	-127.705933	78.711805	345.380205	-206.506041	-22.192771	329.302296	-178.923263	215.963959	154.662506	-143.083097	112.617149	191.385824	-89.911860	355.775126	1077.998960	-463.505974	436.078190	1050.940621	-446.284426	453.672914	1078.800951	-427.471263	493.511894	981.513390	-437.029110	588.855848	875.552552	-382.770994	557.003413	868.522601	-274.351528	489.755110	808.468105	-414.447114	438.260588	737.742989	-413.393286	357.247207	702.044913	-422.395936	457.087546	713.107184	-391.021178	265.656382	610.823859	-430.633816	296.574089	621.880195	-350.549762	187.002639	606.769824	-395.780742	427.447473	438.173309	-384.803515	326.937926	472.474545	-454.717584	-164.244937	903.333434	-266.394387	-43.672845	85.377959	-474.545458	-51.840141	80.544256	-77.151581	
503	2.5150	734.839984	1289.025923	-103.258729	756.385623	1298.669662	-413.954072	732.417269	1397.655381	-267.607572	683.928152	1232.789441	-264.687309	534.473272	1126.360792	57.098913	681.903281	967.564036	-24.333029	554.108582	1150.304801	-608.289221	686.701536	974.182076	-487.439623	158.832615	1262.381113	-296.051086	310.907855	1268.608784	-418.767142	292.844454	1241.684930	-136.831611	346.504161	1205.569803	-386.551629	321.467479	1176.621747	-169.027855	195.605434	1298.214008	-242.399128	205.460382	1310.982231	-327.872169	197.320477	1117.279562	-141.231520	255.235820	1181.063434	-464.602606	219.770653	1004.960780	-116.727146	249.232905	921.157339	-107.638058	234.202661	834.488428	-114.334963	285.901237	924.278859	-108.846257	264.590664	683.646242	-126.669953	188.059575	606.248327	-101.777166	165.471092	521.189200	-113.978932	107.281787	458.529152	-119.479786	194.494525	508.507550	-135.890424	47.797433	335.369932	-127.489547	76.221072	351.618999	-206.556999	-24.914302	337.416324	-178.837866	209.491151	157.593595	-143.338026	107.132623	196.627030	-90.290508	354.037695	1078.780559	-463.924687	433.877956	1050.753957	-447.012620	452.034006	1078.185376	-428.547427	490.481182	980.366985	-437.468963	584.328063	873.025946	-383.986392	553.179647	866.038158	-275.568612	485.936638	804.387433	-415.194971	435.714022	732.743559	-414.188660	355.310030	695.623198	-423.034626	454.963225	708.695258	-391.803914	265.305756	602.887921	-430.544829	296.151192	614.921298	-350.241301	186.751300	595.923104	-395.249812	433.410000	437.207268	-385.473804	331.371203	467.211540	-455.264251	-164.114426	903.295771	-266.792107	-43.687592	85.328289	-474.585276	-51.849831	80.548104	-77.182222	
504	2.5200	735.526113	1287.191546	-105.609188	756.616660	1296.520247	-416.386634	733.771970	1395.999296	-270.098386	683.893089	1231.318011	-266.878987	534.660167	1126.968817	56.075470	681.768650	967.522496	-24.140814	553.396348	1148.768238	-610.348104	686.628760	974.180426	-487.779807	159.577537	1266.000012	-296.053353	311.138850	1270.495557	-419.213560	293.579363	1244.395299	-137.052295	346.803870	1207.421721	-387.161305	321.879728	1179.082864	-168.803321	196.147982	1301.893366	-241.909349	206.456781	1314.140053	-327.906855	197.890054	1120.084109	-140.782775	254.877939	1183.587301	-464.572045	221.572585	1007.338725	-116.573761	252.202234	923.943386	-107.941747	238.179747	836.980582	-114.342809	288.794196	927.471378	-109.587978	268.970643	686.425436	-126.749790	191.400027	610.214641	-101.673017	167.229010	525.505879	-113.934902	107.807981	463.940326	-119.253022	195.778142	512.402179	-136.312269	45.528658	342.100370	-127.046887	73.986698	358.005226	-206.309760	-27.223972	345.710766	-178.517890	203.346216	160.890708	-143.462283	101.950116	202.007039	-90.628370	352.296020	1079.260667	-464.346016	431.586644	1050.097821	-447.800915	450.185259	1077.207735	-429.430017	487.239837	978.932835	-438.197628	579.747137	870.070584	-385.263966	548.986542	863.061961	-276.959293	481.757794	799.635601	-416.642563	432.869609	727.082328	-415.199486	353.157182	688.433075	-423.680359	452.562956	703.558506	-392.659120	264.713923	594.523397	-430.756208	295.794198	607.065277	-350.271556	186.428959	584.475482	-394.296029	439.170363	435.981077	-386.788087	335.325953	461.490107	-455.828775	-164.217352	903.202955	-266.820612	-43.693372	85.277475	-474.599561	-51.848462	80.539146	-77.213857	
